/* XPM */
static char *wall1[] = {
/* columns rows colors chars-per-pixel */
"64 64 11 1 ",
"  c #5F6351",
". c #616553",
"X c #636855",
"o c #81856D",
"O c #838870",
"+ c #868C72",
"@ c #B5BD9A",
"# c #C7D0AA",
"$ c #EBF4C8",
"% c #EFF9CC",
"& c #F5FFD1",
/* pixels */
"$$$$&&&&$$$$&&&&&&&&&&&&%%%%&&&&$$$$&&&&%%%%&&&&&&&&&&&&$$$$&&&&",
"$$$$&&&&$$$$&&&&&&&&&&&&%%%%&&&&$$$$&&&&%%%%&&&&&&&&&&&&$$$$&&&&",
"$$$$&&&&$$$$&&&&&&&&&&&&%%%%&&&&$$$$&&&&%%%%&&&&&&&&&&&&$$$$&&&&",
"$$$$&&&&$$$$&&&&&&&&&&&&%%%%&&&&$$$$&&&&%%%%&&&&&&&&&&&&$$$$&&&&",
"&&&&$$$$$$$$&&&&&&&&&&&&%%%%$$$$&&&&$$$$%%%%&&&&&&&&&&&&$$$$$$$$",
"&&&&$$$$$$$$&&&&&&&&&&&&%%%%$$$$&&&&$$$$%%%%&&&&&&&&&&&&$$$$$$$$",
"&&&&$$$$$$$$&&&&&&&&&&&&%%%%$$$$&&&&$$$$%%%%&&&&&&&&&&&&$$$$$$$$",
"&&&&$$$$$$$$&&&&&&&&&&&&%%%%$$$$&&&&$$$$%%%%&&&&&&&&&&&&$$$$$$$$",
"&&&&&&&&$$$$&&&&$$$$&&&&%%%%&&&&&&&&&&&&%%%%&&&&$$$$&&&&$$$$&&&&",
"&&&&&&&&$$$$&&&&$$$$&&&&%%%%&&&&&&&&&&&&%%%%&&&&$$$$&&&&$$$$&&&&",
"&&&&&&&&$$$$&&&&$$$$&&&&%%%%&&&&&&&&&&&&%%%%&&&&$$$$&&&&$$$$&&&&",
"&&&&&&&&$$$$&&&&$$$$&&&&%%%%&&&&&&&&&&&&%%%%&&&&$$$$&&&&$$$$&&&&",
"&&&&&&&&$$$$$$$$&&&&$$$$%%%%&&&&&&&&&&&&%%%%$$$$&&&&$$$$$$$$&&&&",
"&&&&&&&&$$$$$$$$&&&&$$$$%%%%&&&&&&&&&&&&%%%%$$$$&&&&$$$$$$$$&&&&",
"&&&&&&&&$$$$$$$$&&&&$$$$%%%%&&&&&&&&&&&&%%%%$$$$&&&&$$$$$$$$&&&&",
"&&&&&&&&$$$$$$$$&&&&$$$$%%%%&&&&&&&&&&&&%%%%$$$$&&&&$$$$$$$$&&&&",
"$$$$&&&&$$$$&&&&&&&&&&&&%%%%&&&&$$$$&&&&%%%%&&&&&&&&&&&&$$$$&&&&",
"$$$$&&&&$$$$&&&&&&&&&&&&%%%%&&&&$$$$&&&&%%%%&&&&&&&&&&&&$$$$&&&&",
"$$$$&&&&$$$$&&&&&&&&&&&&%%%%&&&&$$$$&&&&%%%%&&&&&&&&&&&&$$$$&&&&",
"$$$$&&&&$$$$&&&&&&&&&&&&%%%%&&&&$$$$&&&&%%%%&&&&&&&&&&&&$$$$&&&&",
"&&&&$$$$$$$$&&&&&&&&&&&&%%%%$$$$&&&&$$$$%%%%&&&&&&&&&&&&$$$$$$$$",
"&&&&$$$$$$$$&&&&&&&&&&&&%%%%$$$$&&&&$$$$%%%%&&&&&&&&&&&&$$$$$$$$",
"&&&&$$$$$$$$&&&&&&&&&&&&%%%%$$$$&&&&$$$$%%%%&&&&&&&&&&&&$$$$$$$$",
"&&&&$$$$$$$$&&&&&&&&&&&&%%%%$$$$&&&&$$$$%%%%&&&&&&&&&&&&$$$$$$$$",
"&&&&&&&&$$$$&&&&$$$$&&&&%%%%&&&&&&&&&&&&%%%%&&&&$$$$&&&&$$$$&&&&",
"&&&&&&&&$$$$&&&&$$$$&&&&%%%%&&&&&&&&&&&&%%%%&&&&$$$$&&&&$$$$&&&&",
"&&&&&&&&$$$$&&&&$$$$&&&&%%%%&&&&&&&&&&&&%%%%&&&&$$$$&&&&$$$$&&&&",
"&&&&&&&&$$$$&&&&$$$$&&&&%%%%&&&&&&&&&&&&%%%%&&&&$$$$&&&&$$$$&&&&",
"&&&&&&&&$$$$$$$$&&&&$$$$%%%%&&&&&&&&&&&&%%%%$$$$&&&&$$$$$$$$&&&&",
"&&&&&&&&$$$$$$$$&&&&$$$$%%%%&&&&&&&&&&&&%%%%$$$$&&&&$$$$$$$$&&&&",
"&&&&&&&&$$$$$$$$&&&&$$$$%%%%&&&&&&&&&&&&%%%%$$$$&&&&$$$$$$$$&&&&",
"&&&&&&&&$$$$$$$$&&&&$$$$%%%%&&&&&&&&&&&&%%%%$$$$&&&&$$$$$$$$&&&&",
"$$$$&&&&$$$$&&&&&&&&&&&&%%%%&&&&$$$$&&&&%%%%&&&&&&&&&&&&$$$$&&&&",
"$$$$&&&&$$$$&&&&&&&&&&&&%%%%&&&&$$$$&&&&%%%%&&&&&&&&&&&&$$$$&&&&",
"$$$$&&&&$$$$&&&&&&&&&&&&%%%%&&&&$$$$&&&&%%%%&&&&&&&&&&&&$$$$&&&&",
"$$$$&&&&$$$$&&&&&&&&&&&&%%%%&&&&$$$$&&&&%%%%&&&&&&&&&&&&$$$$&&&&",
"&&&&$$$$$$$$&&&&&&&&&&&&%%%%$$$$&&&&$$$$%%%%&&&&&&&&&&&&$$$$$$$$",
"&&&&$$$$$$$$&&&&&&&&&&&&%%%%$$$$&&&&$$$$%%%%&&&&&&&&&&&&$$$$$$$$",
"&&&&$$$$$$$$&&&&&&&&&&&&%%%%$$$$&&&&$$$$%%%%&&&&&&&&&&&&$$$$$$$$",
"&&&&$$$$$$$$&&&&&&&&&&&&%%%%$$$$&&&&$$$$%%%%&&&&&&&&&&&&$$$$$$$$",
"&&&&&&&&$$$$&&&&$$$$&&&&%%%%&&&&&&&&&&&&%%%%&&&&$$$$&&&&$$$$&&&&",
"&&&&&&&&$$$$&&&&$$$$&&&&%%%%&&&&&&&&&&&&%%%%&&&&$$$$&&&&$$$$&&&&",
"&&&&&&&&$$$$&&&&$$$$&&&&%%%%&&&&&&&&&&&&%%%%&&&&$$$$&&&&$$$$&&&&",
"&&&&&&&&$$$$&&&&$$$$&&&&%%%%&&&&&&&&&&&&%%%%&&&&$$$$&&&&$$$$&&&&",
"&&&&&&&&$$$$$$$$&&&&$$$$%%%%&&&&&&&&&&&&%%%%$$$$&&&&$$$$$$$$&&&&",
"&&&&&&&&$$$$$$$$&&&&$$$$%%%%&&&&&&&&&&&&%%%%$$$$&&&&$$$$$$$$&&&&",
"&&&&&&&&$$$$$$$$&&&&$$$$%%%%&&&&&&&&&&&&%%%%$$$$&&&&$$$$$$$$&&&&",
"&&&&&&&&$$$$$$$$&&&&$$$$%%%%&&&&&&&&&&&&%%%%$$$$&&&&$$$$$$$$&&&&",
"####&&&&$$$$&&&&####@@@@@@@@&&&&$$$$@@@@########&&&&&&&&$$$$@@@@",
"####&&&&$$$$&&&&####@@@@@@@@&&&&$$$$@@@@########&&&&&&&&$$$$@@@@",
"####&&&&$$$$&&&&####@@@@@@@@&&&&$$$$@@@@########&&&&&&&&$$$$@@@@",
"####&&&&$$$$&&&&####@@@@@@@@&&&&$$$$@@@@########&&&&&&&&$$$$@@@@",
"@@@@####$$$$####@@@@@@@@@@@@####@@@@@@@@@@@@####@@@@@@@@@@@@@@@@",
"@@@@####$$$$####@@@@@@@@@@@@####@@@@@@@@@@@@####@@@@@@@@@@@@@@@@",
"@@@@####$$$$####@@@@@@@@@@@@####@@@@@@@@@@@@####@@@@@@@@@@@@@@@@",
"@@@@####$$$$####@@@@@@@@@@@@####@@@@@@@@@@@@####@@@@@@@@@@@@@@@@",
"++++++++oooo++++oooo++++OOOO++++++++++++OOOO++++oooo++++oooo++++",
"++++++++oooo++++oooo++++OOOO++++++++++++OOOO++++oooo++++oooo++++",
"++++++++oooo++++oooo++++OOOO++++++++++++OOOO++++oooo++++oooo++++",
"++++++++oooo++++oooo++++OOOO++++++++++++OOOO++++oooo++++oooo++++",
"XXXXXXXX        XXXX    ....XXXXXXXXXXXX....    XXXX        XXXX",
"XXXXXXXX        XXXX    ....XXXXXXXXXXXX....    XXXX        XXXX",
"XXXXXXXX        XXXX    ....XXXXXXXXXXXX....    XXXX        XXXX",
"XXXXXXXX        XXXX    ....XXXXXXXXXXXX....    XXXX        XXXX"
};
