/* XPM */
static char *_650504297247[] = {
/* columns rows colors chars-per-pixel */
"64 64 2 1 ",
"  c #DCE5BC",
". c #F5FFD1",
/* pixels */
"    ....    ............    ....    ....    ............    ....",
"    ....    ............    ....    ....    ............    ....",
"    ....    ............    ....    ....    ............    ....",
"    ....    ............    ....    ....    ............    ....",
"....        ............        ....        ............        ",
"....        ............        ....        ............        ",
"....        ............        ....        ............        ",
"....        ............        ....        ............        ",
"........    ....    ....    ............    ....    ....    ....",
"........    ....    ....    ............    ....    ....    ....",
"........    ....    ....    ............    ....    ....    ....",
"........    ....    ....    ............    ....    ....    ....",
"........        ....        ............        ....        ....",
"........        ....        ............        ....        ....",
"........        ....        ............        ....        ....",
"........        ....        ............        ....        ....",
"    ....    ............    ....    ....    ............    ....",
"    ....    ............    ....    ....    ............    ....",
"    ....    ............    ....    ....    ............    ....",
"    ....    ............    ....    ....    ............    ....",
"....        ............        ....        ............        ",
"....        ............        ....        ............        ",
"....        ............        ....        ............        ",
"....        ............        ....        ............        ",
"........    ....    ....    ............    ....    ....    ....",
"........    ....    ....    ............    ....    ....    ....",
"........    ....    ....    ............    ....    ....    ....",
"........    ....    ....    ............    ....    ....    ....",
"........        ....        ............        ....        ....",
"........        ....        ............        ....        ....",
"........        ....        ............        ....        ....",
"........        ....        ............        ....        ....",
"    ....    ............    ....    ....    ............    ....",
"    ....    ............    ....    ....    ............    ....",
"    ....    ............    ....    ....    ............    ....",
"    ....    ............    ....    ....    ............    ....",
"....        ............        ....        ............        ",
"....        ............        ....        ............        ",
"....        ............        ....        ............        ",
"....        ............        ....        ............        ",
"........    ....    ....    ............    ....    ....    ....",
"........    ....    ....    ............    ....    ....    ....",
"........    ....    ....    ............    ....    ....    ....",
"........    ....    ....    ............    ....    ....    ....",
"........        ....        ............        ....        ....",
"........        ....        ............        ....        ....",
"........        ....        ............        ....        ....",
"........        ....        ............        ....        ....",
"    ....    ............    ....    ....    ............    ....",
"    ....    ............    ....    ....    ............    ....",
"    ....    ............    ....    ....    ............    ....",
"    ....    ............    ....    ....    ............    ....",
"....        ............        ....        ............        ",
"....        ............        ....        ............        ",
"....        ............        ....        ............        ",
"....        ............        ....        ............        ",
"........    ....    ....    ............    ....    ....    ....",
"........    ....    ....    ............    ....    ....    ....",
"........    ....    ....    ............    ....    ....    ....",
"........    ....    ....    ............    ....    ....    ....",
"........        ....        ............        ....        ....",
"........        ....        ............        ....        ....",
"........        ....        ............        ....        ....",
"........        ....        ............        ....        ...."
};
